HIERARCHY
ROOT SpineBase
{
  OFFSET 0.000000 0.000000 0.000000
  CHANNELS 6 Xposition Yposition Zposition Zrotation Xrotation Yrotation
  JOINT SpineMid
  {
    OFFSET 0.000000 31.414831 0.000000
    CHANNELS 3 Zrotation Xrotation Yrotation
    JOINT SpineShoulder
    {
      OFFSET 1.352299 23.326713 -0.644024
      CHANNELS 3 Zrotation Xrotation Yrotation
      JOINT Neck
      {
        OFFSET 0.833787 7.714670 -0.604785
        CHANNELS 3 Zrotation Xrotation Yrotation
        JOINT Head
        {
          OFFSET 3.815889 12.220146 5.204949
          CHANNELS 3 Zrotation Xrotation Yrotation
          End Site
          {
            OFFSET 0 0 0
          }
        }
      }
      JOINT ShoulderLeft
      {
        OFFSET -5.105703 -3.624391 -13.719757
        CHANNELS 3 Zrotation Xrotation Yrotation
        JOINT ElbowLeft
        {
          OFFSET -3.946804 -24.134395 -9.130566
          CHANNELS 3 Zrotation Xrotation Yrotation
          JOINT WristLeft
          {
            OFFSET 2.950699 -24.320774 -3.873797
            CHANNELS 3 Zrotation Xrotation Yrotation
            JOINT HandLeft
            {
              OFFSET -0.895375 -9.188841 2.205245
              CHANNELS 3 Zrotation Xrotation Yrotation
              JOINT HandTipLeft
              {
                OFFSET 0.379069 -8.863696 0.940060
                CHANNELS 3 Zrotation Xrotation Yrotation
                End Site
                {
                  OFFSET 0 0 0
                }
              }
              JOINT ThumbLeft
              {
                OFFSET 2.854725 0.616725 8.365467
                CHANNELS 3 Zrotation Xrotation Yrotation
                End Site
                {
                  OFFSET 0 0 0
                }
              }
            }
          }
        }
      }
      JOINT ShoulderRight
      {
        OFFSET 6.405237 -4.400723 14.349978
        CHANNELS 3 Zrotation Xrotation Yrotation
        JOINT ElbowRight
        {
          OFFSET 0.235645 -31.473689 7.608140
          CHANNELS 3 Zrotation Xrotation Yrotation
          JOINT WristRight
          {
            OFFSET -1.611779 -23.729609 0.689563
            CHANNELS 3 Zrotation Xrotation Yrotation
            JOINT HandRight
            {
              OFFSET -0.225813 -5.485277 -2.007901
              CHANNELS 3 Zrotation Xrotation Yrotation
              JOINT HandTipRight
              {
                OFFSET 1.019897 -5.526704 -1.590900
                CHANNELS 3 Zrotation Xrotation Yrotation
                End Site
                {
                  OFFSET 0 0 0
                }
              }
              JOINT ThumbRight
              {
                OFFSET 0.819123 -0.562693 -10.385913
                CHANNELS 3 Zrotation Xrotation Yrotation
                End Site
                {
                  OFFSET 0 0 0
                }
              }
            }
          }
        }
      }
    }
  }
  JOINT HipLeft
  {
    OFFSET -2.960581 0.933557 -8.512363
    CHANNELS 3 Zrotation Xrotation Yrotation
    JOINT KneeLeft
    {
      OFFSET -9.949227 -36.177087 -0.812865
      CHANNELS 3 Zrotation Xrotation Yrotation
      JOINT AnkleLeft
      {
        OFFSET -10.453531 -34.127765 6.929009
        CHANNELS 3 Zrotation Xrotation Yrotation
        JOINT FootLeft
        {
          OFFSET 3.376369 -5.988095 -3.092256
          CHANNELS 3 Zrotation Xrotation Yrotation
          End Site
          {
            OFFSET 0 0 0
          }
        }
      }
    }
  }
  JOINT HipRight
  {
    OFFSET 4.839431 0.834206 1.631410
    CHANNELS 3 Zrotation Xrotation Yrotation
    JOINT KneeRight
    {
      OFFSET -4.713509 -37.851631 9.848622
      CHANNELS 3 Zrotation Xrotation Yrotation
      JOINT AnkleRight
      {
        OFFSET -8.200924 -38.278169 15.512272
        CHANNELS 3 Zrotation Xrotation Yrotation
        JOINT FootRight
        {
          OFFSET 3.039035 -5.568469 -1.986848
          CHANNELS 3 Zrotation Xrotation Yrotation
          End Site
          {
            OFFSET 0 0 0
          }
        }
      }
    }
  }
}
MOTION
Frames: 16
Frame Time: 0.033333
-89.892154 81.786230 286.114019 -0.000000 0.000000 -52.441668 -0.000000 0.000000 52.441668 -0.000000 0.000000 0.000000 -0.000000 0.000000 0.000000 0.000000 0.000000 0.000000 -0.000000 0.000000 0.000000 -0.000000 0.000000 0.000000 -0.000000 0.000000 0.000000 -0.000000 0.000000 0.000000 0.000000 0.000000 0.000000 0.000000 0.000000 0.000000 -0.000000 0.000000 0.000000 -0.000000 0.000000 0.000000 -0.000000 0.000000 0.000000 -0.000000 0.000000 0.000000 0.000000 0.000000 0.000000 0.000000 0.000000 0.000000 -0.000000 0.000000 52.441668 -0.000000 0.000000 0.000000 -0.000000 0.000000 0.000000 0.000000 0.000000 0.000000 -0.000000 0.000000 52.441668 -0.000000 0.000000 0.000000 -0.000000 0.000000 0.000000 0.000000 0.000000 0.000000
-89.912568 81.809203 286.005528 -0.260313 -0.000425 -53.327386 0.155129 0.209041 53.327102 -0.000000 0.000000 0.000000 -0.000000 0.000000 0.000000 0.000000 0.000000 0.000000 -0.751211 -0.711340 0.396375 0.355212 -0.179213 -0.448809 0.722880 -1.605511 0.363937 -0.313265 2.495911 -0.313154 0.000000 0.000000 0.000000 0.000000 0.000000 0.000000 -0.000000 0.000000 0.000000 -0.000000 0.000000 0.000000 -0.495896 -0.992331 0.218737 -0.494472 2.242850 0.317805 0.000000 0.000000 0.000000 0.000000 0.000000 0.000000 0.155129 0.209041 53.327102 -0.000000 0.000000 0.000000 -2.765568 -2.858863 -0.259785 0.000000 0.000000 0.000000 0.155129 0.209041 53.327102 -0.000000 0.000000 0.000000 -0.000000 0.000000 0.000000 0.000000 0.000000 0.000000
-89.930735 81.833063 285.899518 -0.487909 0.010122 -54.079015 0.294443 0.389182 54.078059 -0.000000 0.000000 0.000000 -1.210804 -0.125442 0.552016 0.000000 0.000000 0.000000 -1.390727 -1.364266 0.734565 0.716462 -0.306717 -0.856589 1.486577 -2.832971 0.721882 -0.764608 4.505448 -0.597919 0.000000 0.000000 0.000000 0.000000 0.000000 0.000000 -0.000000 0.000000 0.000000 -0.000000 0.000000 0.000000 -1.016871 -1.980852 0.438827 -0.988475 4.588871 0.704687 0.000000 0.000000 0.000000 0.000000 0.000000 0.000000 0.294443 0.389182 54.078059 -0.000000 0.000000 0.000000 -3.807159 -4.166801 -0.542639 0.000000 0.000000 0.000000 0.294443 0.389182 54.078059 -0.000000 0.000000 0.000000 0.416991 -0.767807 -0.565257 0.000000 0.000000 0.000000
-89.946653 81.857811 285.795988 -0.682696 0.031679 -54.701770 0.420350 0.538877 54.699982 1.138625 0.162180 0.070208 -2.745209 -0.479741 0.699454 0.000000 0.000000 0.000000 -3.064154 -2.117132 0.939895 1.092376 -0.376859 -1.223416 2.286452 -3.626896 1.070377 -1.364777 5.970344 -0.848279 0.000000 0.000000 0.000000 0.000000 0.000000 0.000000 -1.138827 -0.160752 -0.073417 -0.595709 -0.686434 0.025732 -0.949121 -2.232871 0.637542 -1.460820 6.945928 1.147208 0.000000 0.000000 0.000000 0.000000 0.000000 0.000000 0.420350 0.538877 54.699982 -0.594642 -0.721623 0.096287 -2.665549 -3.348036 -0.820143 0.000000 0.000000 0.000000 0.420350 0.538877 54.699982 -0.000000 0.000000 0.000000 0.577665 -1.114554 -0.809360 0.000000 0.000000 0.000000
-89.960322 81.883445 285.694939 -0.844577 0.064281 -55.200431 0.534811 0.656835 55.197839 1.451368 0.205636 0.089090 -3.315810 -0.803098 0.868467 0.000000 0.000000 0.000000 -3.806614 -2.695071 1.149780 1.490095 -0.384858 -1.549633 3.115687 -3.942903 1.402192 -1.222929 7.369106 -1.057803 0.000000 0.000000 0.000000 0.000000 0.000000 0.000000 -1.451695 -0.203314 -0.094270 -0.685539 -1.138272 0.050551 -1.370983 -2.619174 0.826121 -1.885994 9.202482 1.618820 0.000000 0.000000 0.000000 0.000000 0.000000 0.000000 0.534811 0.656835 55.197839 -0.665920 -0.972365 0.156445 -0.528408 -1.690850 -1.080066 0.000000 0.000000 0.000000 -0.286829 1.027539 55.056500 0.166799 -0.885746 0.154706 0.706478 -1.435492 -1.027807 0.000000 0.000000 0.000000
-89.971743 81.909967 285.596371 -0.973456 0.107970 -55.579285 0.639354 0.741972 55.576062 1.730534 0.243697 0.105846 -3.716495 -1.206118 1.007434 0.000000 0.000000 0.000000 -4.414590 -3.210322 1.314264 1.915189 -0.326729 -1.835833 3.965289 -3.746586 1.705944 -1.499808 7.365645 -1.267264 0.000000 0.000000 0.000000 0.000000 0.000000 0.000000 -1.730996 -0.240389 -0.113158 -0.722568 -1.703027 0.083874 -1.805151 -2.744335 0.993615 -2.236778 11.241902 2.082021 0.000000 0.000000 0.000000 0.000000 0.000000 0.000000 0.639354 0.741972 55.576062 -0.671797 -1.224524 0.230602 3.031407 1.225241 -1.488844 0.000000 0.000000 0.000000 -0.322323 1.163181 55.412245 0.540484 -1.788860 0.489306 0.459504 -0.973118 -1.528362 0.000000 0.000000 0.000000
-89.988914 81.955532 285.471954 -1.039107 0.245185 -55.776436 0.787171 0.721282 55.773705 1.889960 0.312633 0.109448 -3.679811 -1.779381 1.069535 0.000000 0.000000 0.000000 -4.736214 -3.765994 1.430785 2.503658 -0.094540 -2.098895 4.852245 -2.360535 1.962731 -1.058537 5.494342 -1.414283 0.000000 0.000000 0.000000 0.000000 0.000000 0.000000 -1.890581 -0.308853 -0.119701 -0.726436 -2.508630 0.133262 -2.523325 -0.057146 1.209629 -0.689558 13.764345 2.401111 0.000000 0.000000 0.000000 0.000000 0.000000 0.000000 0.787171 0.721282 55.773705 -0.539485 -1.417162 0.316649 11.773067 8.206927 -2.962902 0.000000 0.000000 0.000000 -0.278721 1.127606 55.583722 0.679179 -1.935896 0.563068 0.112969 -1.297249 -1.691635 0.000000 0.000000 0.000000
-89.998281 81.993735 285.359543 -1.104225 0.332385 -55.920334 0.894065 0.728333 55.917854 2.115696 0.342148 0.122854 -3.718186 -2.351070 1.141182 0.000000 0.000000 0.000000 -5.062640 -4.181471 1.503400 3.076570 0.171562 -2.315818 5.500234 -0.210792 2.021639 -1.818051 2.397104 -1.404126 0.000000 0.000000 0.000000 0.000000 0.000000 0.000000 -2.116462 -0.337379 -0.135404 -0.654640 -3.342393 0.188732 -2.812993 0.619942 1.286648 -0.303247 20.453272 3.630038 0.000000 0.000000 0.000000 0.000000 0.000000 0.000000 0.894065 0.728333 55.917854 -0.336788 -1.717968 0.451053 15.313604 11.577687 -3.868327 0.000000 0.000000 0.000000 -0.230494 1.147757 55.716989 0.713680 -2.040985 0.592707 0.193022 -1.480435 -1.868124 0.000000 0.000000 0.000000
-90.001842 82.015676 285.286017 -1.139474 0.384480 -56.025504 1.409524 1.420502 56.036985 1.516126 0.325958 0.118849 -3.753231 -2.913317 1.219174 0.000000 0.000000 0.000000 -5.344824 -4.483206 1.547655 3.634138 0.473070 -2.496267 6.029469 1.212846 2.117510 -1.591347 0.329852 -1.371308 0.000000 0.000000 0.000000 0.000000 0.000000 0.000000 -2.343007 -0.330065 -0.154404 -0.545916 -4.203778 0.249413 -3.015797 0.669391 1.328795 -1.425887 19.012402 3.697239 0.000000 0.000000 0.000000 0.000000 0.000000 0.000000 0.955624 0.730095 56.023239 -0.186708 -1.943281 0.552041 22.759678 16.699159 -6.410441 0.000000 0.000000 0.000000 -0.210048 1.194641 55.820373 0.683378 -2.135284 0.597580 0.344937 -1.603069 -2.003321 0.000000 0.000000 0.000000
-89.995843 82.024751 285.238553 -1.147663 0.402367 -55.950180 1.491543 1.475542 55.963673 1.640089 0.326410 0.132837 -3.778289 -3.510338 1.317586 0.000000 0.000000 0.000000 -5.558589 -4.684714 1.563320 3.968480 0.681399 -2.608824 7.307411 2.147208 2.348268 -3.346658 -0.741329 -1.634389 0.000000 0.000000 0.000000 0.000000 0.000000 0.000000 -2.550826 -0.312689 -0.172717 -0.403847 -4.978586 0.308615 -2.809216 0.973644 1.184002 -3.027299 22.273102 5.069500 0.000000 0.000000 0.000000 0.000000 0.000000 0.000000 0.155631 0.729933 55.781316 0.393827 -2.838193 0.821819 23.090267 17.068354 -6.734697 0.000000 0.000000 0.000000 -0.077768 1.264566 55.782307 0.459832 -1.962076 0.488107 0.654767 -2.054876 -2.187634 0.000000 0.000000 0.000000
-89.983886 82.016941 285.212978 -1.147506 0.380718 -55.805776 1.532050 1.535727 55.820608 1.732280 0.334499 0.142874 -3.726739 -4.112319 1.407923 0.000000 0.000000 0.000000 -5.692728 -4.748496 1.549116 4.136012 0.841537 -2.640110 8.010571 4.071938 2.212642 -4.574844 -2.839222 -1.674199 0.000000 0.000000 0.000000 0.000000 0.000000 0.000000 -2.716764 -0.303680 -0.186880 -0.181158 -5.524226 0.360961 -3.301530 1.415188 1.299824 -3.220949 13.751216 3.192920 0.000000 0.000000 0.000000 0.000000 0.000000 0.000000 -0.119319 0.821542 55.571650 0.534400 -3.281475 0.962350 19.875728 15.198300 -5.775997 0.000000 0.000000 0.000000 -0.382484 1.265251 55.568656 0.745496 -2.463193 0.671598 0.897006 -1.715591 -2.372791 0.000000 0.000000 0.000000
-89.969416 82.001045 285.164596 -1.148772 0.334034 -55.622828 1.535646 1.653351 55.637065 1.815043 0.377058 0.147409 -3.962154 -4.331817 1.465908 0.000000 0.000000 0.000000 -5.807600 -4.737769 1.502682 4.199405 0.857529 -2.611995 8.311030 6.018753 1.953571 -4.547539 -4.829973 -1.507365 0.000000 0.000000 0.000000 0.000000 0.000000 0.000000 -2.898860 -0.369003 -0.196172 -1.125040 -5.156065 0.266572 0.029086 -0.066282 0.306354 -6.714575 3.574454 1.905986 0.000000 0.000000 0.000000 0.000000 0.000000 0.000000 -0.252705 0.937241 55.354762 0.497504 -3.541418 1.032833 8.795977 7.285730 -3.032942 0.000000 0.000000 0.000000 -0.693859 1.248012 55.313971 1.074291 -2.917717 0.864441 1.234350 -1.123420 -2.458464 0.000000 0.000000 0.000000
-89.955956 82.000588 285.094809 -1.170858 0.259006 -55.419916 1.614098 1.701956 55.437797 1.891051 0.372846 0.160239 -3.954917 -4.553953 1.494277 0.000000 0.000000 0.000000 -5.946702 -4.550668 1.476505 4.236376 1.078470 -2.568012 8.466554 8.191023 1.549694 -4.767273 -6.175027 -1.313063 0.000000 0.000000 0.000000 0.000000 0.000000 0.000000 -3.038165 -0.259505 -0.216406 -0.307848 -4.769204 0.301938 -3.215552 -2.337370 1.363809 -7.815443 7.296360 2.979487 0.000000 0.000000 0.000000 0.000000 0.000000 0.000000 -0.243540 1.087276 55.148502 0.274388 -3.615225 1.026964 -2.979881 -1.996172 -1.740149 0.000000 0.000000 0.000000 -1.237829 1.233201 54.983028 1.682448 -3.644503 1.204131 1.628288 -0.233792 -2.586022 0.000000 0.000000 0.000000
-89.954684 82.035225 284.983348 -1.239918 0.203455 -55.026210 1.803586 1.653372 55.051544 1.938118 0.377959 0.170523 -3.560819 -4.688347 1.415188 0.000000 0.000000 0.000000 -5.841924 -4.246159 1.400988 3.839042 0.998463 -2.438267 8.373494 9.805925 1.162993 -5.499401 -7.806271 -1.291662 0.000000 0.000000 0.000000 0.000000 0.000000 0.000000 -3.086554 -0.041043 -0.237996 0.546283 -5.636739 0.425467 -3.183741 -2.530832 1.035015 -13.231047 9.999977 6.047152 0.000000 0.000000 0.000000 0.000000 0.000000 0.000000 -0.085691 1.243805 54.774498 -0.036344 -3.566381 0.976006 -5.484112 -4.253647 -1.797246 0.000000 0.000000 0.000000 -1.302820 1.123436 54.542607 2.067255 -3.711472 1.360329 2.169373 0.525324 -2.609777 0.000000 0.000000 0.000000
-89.933579 82.051790 284.926907 -1.285750 0.044698 -55.234958 1.886487 1.620409 55.267332 1.986369 0.353805 0.184271 -3.067125 -4.700577 1.284912 0.000000 0.000000 0.000000 -5.590638 -3.930073 1.290543 3.186471 0.755214 -2.269451 7.962063 10.549074 0.892453 -5.193755 -8.540415 -1.126441 0.000000 0.000000 0.000000 0.000000 0.000000 0.000000 -3.105968 0.238309 -0.262119 2.275537 -6.304499 0.619960 -3.209995 -4.957580 0.473324 -17.997914 12.902524 9.016054 0.000000 0.000000 0.000000 0.000000 0.000000 0.000000 -0.113362 1.473572 54.982150 -0.365528 -3.619324 0.945064 -2.513831 -2.338275 -2.024631 0.000000 0.000000 0.000000 -1.003655 1.116562 54.828503 1.676938 -3.202677 1.126751 2.252091 0.489059 -2.387139 0.000000 0.000000 0.000000
-89.897879 81.965128 285.003031 -1.292291 -0.344303 -55.623072 1.946403 1.535513 55.670122 2.015601 0.177653 0.224150 -2.501277 -4.139648 1.047735 0.000000 0.000000 0.000000 -5.145572 -3.328598 1.125034 2.350427 0.518682 -2.068198 7.849185 10.765777 0.766600 -4.926646 -9.116131 -1.049649 0.000000 0.000000 0.000000 0.000000 0.000000 0.000000 -3.083552 2.888977 -0.303361 2.993479 -15.377621 1.439730 8.629190 18.038163 -7.870945 -27.923070 -10.090031 5.735120 0.000000 0.000000 0.000000 0.000000 0.000000 0.000000 -0.577404 1.852718 55.320195 -0.613632 -3.902297 0.973515 5.785808 3.899560 -2.809022 0.000000 0.000000 0.000000 -0.475849 1.583174 55.453344 0.529380 -2.120885 0.553452 -2.117413 -2.760856 -1.920919 0.000000 0.000000 0.000000
